<svg xmlns:x="http://ns.adobe.com/Extensibility/1.0/" xmlns:i="http://ns.adobe.com/AdobeIllustrator/10.0/" xmlns:graph="http://ns.adobe.com/Graphs/1.0/" xmlns="http://www.w3.org/2000/svg" xmlns:xlink="http://www.w3.org/1999/xlink" version="1.1" x="0px" y="0px" width="100px" height="100px" viewBox="5.0 -10.0 100.0 135.0" enable-background="new 0 0 100 100" xml:space="preserve">
<metadata>
	<sfw xmlns="http://ns.adobe.com/SaveForWeb/1.0/">
		<slices/>
		<sliceSourceBounds height="1780.628" width="870" bottomLeftOrigin="true" x="-192" y="-1744.628"/>
	</sfw>
</metadata>
<g id="Captions">
</g>
<g id="Your_Icon">
	<path fill="#000000" d="M50,4.998C25.146,4.998,5,25.144,5,50c0,24.852,20.146,45.002,45,45.002S95,74.852,95,50   C95,25.144,74.854,4.998,50,4.998z M34.34,89.203l-1.299-0.58c-8.012-3.577-14.454-9.196-19.144-16.706   C9.042,63.706,7.094,54.78,8.087,45.359c0.539-4.738,1.848-9.271,3.89-13.489l0.22-0.45l0.475-0.159   c3.017-1.019,6.159-1.641,9.344-1.846c3.335-0.215,6.582,0.354,9.605,1.671c4.15,2.357,7.52,5.572,10.13,9.617   c2.401,3.507,3.423,7.423,3.021,11.607c-0.404,4.186-1.399,8.241-2.963,12.064c-2.727,7.654-5.128,15.562-7.119,23.449   L34.34,89.203z M90.801,60.664c-2.646,9.884-8.238,17.903-16.617,23.835c-7.461,5.113-15.681,7.699-24.445,7.699   c-1.433,0-2.944-0.07-4.367-0.201c-2.285-0.373-4.451-0.836-6.523-1.383l-1.141-0.299l0.283-1.146   c1.941-7.891,4.325-15.788,7.082-23.473c1.886-4.407,2.986-9.059,3.297-13.898c0.311-4.832-0.998-9.28-3.891-13.225   c-2.708-4.089-6.18-7.478-10.349-10.117c-5.131-2.426-10.773-3.201-16.466-2.152l-3.059,0.563l1.893-2.468   c4.023-5.253,9.113-9.431,15.122-12.407c7.33-3.481,15.132-4.809,23.111-3.935c1.961,0.203,3.931,0.575,5.851,1.099l1.307,0.359   l-0.515,1.25c-1.252,3.049-1.666,6.241-1.229,9.489c0.493,3.651,1.729,7.236,3.572,10.364c1.005,2.389,2.297,4.562,3.914,6.608   c3.395,4.201,7.54,7.753,12.312,10.542c2.369,1.433,4.617,3.146,6.698,5.104c2.055,1.93,3.447,4.304,4.141,7.062l0.075,0.299   L90.801,60.664z M90.081,51.456c-2.443-2.662-5.267-4.865-8.388-6.545c-4.575-2.753-8.498-6.201-11.709-10.276   c-1.182-1.617-2.203-3.393-2.979-5.171c-0.087-0.245-0.141-0.315-0.169-0.346l-0.168-0.231c-1.547-2.79-2.563-5.804-3.019-8.958   c-0.416-2.889-0.049-5.548,1.121-8.125l0.481-1.065l1.077,0.461c8.07,3.443,14.599,8.953,19.41,16.37   c4.364,7.075,6.519,14.837,6.419,23.092l-0.038,3.017L90.081,51.456z"/>
</g>
</svg>